<svg width="960" height="540" viewBox="0 0 960 540" fill="none" xmlns="http://www.w3.org/2000/svg">
  <rect width="960" height="540" fill="#69B7C3"/>

  <g opacity="0.35" fill="#EAF8FC">
    <g transform="translate(72 70)">
      <path d="M36 0C60 0 82 12 95 31C80 21 58 19 40 25C20 31 5 45 0 65C-3 43 4 21 18 9C24 3 29 0 36 0Z"/>
      <path d="M100 42C106 65 98 90 80 107C64 121 41 126 20 119C41 118 61 108 74 91C86 76 92 57 90 38C94 39 98 40 100 42Z"/>
      <path d="M31 17C52 17 73 26 86 41C73 39 58 41 45 47C31 53 20 63 15 76C12 61 16 45 25 33C27 29 29 22 31 17Z"/>
    </g>

    <g transform="translate(330 18)">
      <path d="M36 0C60 0 82 12 95 31C80 21 58 19 40 25C20 31 5 45 0 65C-3 43 4 21 18 9C24 3 29 0 36 0Z"/>
      <path d="M100 42C106 65 98 90 80 107C64 121 41 126 20 119C41 118 61 108 74 91C86 76 92 57 90 38C94 39 98 40 100 42Z"/>
      <path d="M31 17C52 17 73 26 86 41C73 39 58 41 45 47C31 53 20 63 15 76C12 61 16 45 25 33C27 29 29 22 31 17Z"/>
    </g>

    <g transform="translate(676 58)">
      <path d="M36 0C60 0 82 12 95 31C80 21 58 19 40 25C20 31 5 45 0 65C-3 43 4 21 18 9C24 3 29 0 36 0Z"/>
      <path d="M100 42C106 65 98 90 80 107C64 121 41 126 20 119C41 118 61 108 74 91C86 76 92 57 90 38C94 39 98 40 100 42Z"/>
      <path d="M31 17C52 17 73 26 86 41C73 39 58 41 45 47C31 53 20 63 15 76C12 61 16 45 25 33C27 29 29 22 31 17Z"/>
    </g>

    <g transform="translate(196 246)">
      <path d="M36 0C60 0 82 12 95 31C80 21 58 19 40 25C20 31 5 45 0 65C-3 43 4 21 18 9C24 3 29 0 36 0Z"/>
      <path d="M100 42C106 65 98 90 80 107C64 121 41 126 20 119C41 118 61 108 74 91C86 76 92 57 90 38C94 39 98 40 100 42Z"/>
      <path d="M31 17C52 17 73 26 86 41C73 39 58 41 45 47C31 53 20 63 15 76C12 61 16 45 25 33C27 29 29 22 31 17Z"/>
    </g>

    <g transform="translate(541 168)">
      <path d="M36 0C60 0 82 12 95 31C80 21 58 19 40 25C20 31 5 45 0 65C-3 43 4 21 18 9C24 3 29 0 36 0Z"/>
      <path d="M100 42C106 65 98 90 80 107C64 121 41 126 20 119C41 118 61 108 74 91C86 76 92 57 90 38C94 39 98 40 100 42Z"/>
      <path d="M31 17C52 17 73 26 86 41C73 39 58 41 45 47C31 53 20 63 15 76C12 61 16 45 25 33C27 29 29 22 31 17Z"/>
    </g>

    <g transform="translate(804 322)">
      <path d="M36 0C60 0 82 12 95 31C80 21 58 19 40 25C20 31 5 45 0 65C-3 43 4 21 18 9C24 3 29 0 36 0Z"/>
      <path d="M100 42C106 65 98 90 80 107C64 121 41 126 20 119C41 118 61 108 74 91C86 76 92 57 90 38C94 39 98 40 100 42Z"/>
      <path d="M31 17C52 17 73 26 86 41C73 39 58 41 45 47C31 53 20 63 15 76C12 61 16 45 25 33C27 29 29 22 31 17Z"/>
    </g>
  </g>
</svg>
